<svg width="32" height="32" viewBox="0 0 32 32" fill="none" xmlns="http://www.w3.org/2000/svg">
<path d="M16.0008 23.2165C14.5737 23.2165 13.1786 22.7933 11.992 22.0005C10.8054 21.2076 9.88056 20.0807 9.33442 18.7622C8.78828 17.4437 8.64539 15.9928 8.92381 14.5931C9.20223 13.1934 9.88945 11.9077 10.8986 10.8986C11.9077 9.88945 13.1934 9.20223 14.5931 8.92381C15.9928 8.64539 17.4437 8.78828 18.7622 9.33442C20.0807 9.88056 21.2076 10.8054 22.0005 11.992C22.7933 13.1786 23.2165 14.5737 23.2165 16.0008C23.2149 17.9141 22.4541 19.7484 21.1013 21.1013C19.7484 22.4541 17.9141 23.2149 16.0008 23.2165ZM16.0008 10.6675C14.946 10.6675 13.9149 10.9803 13.0378 11.5663C12.1607 12.1524 11.4772 12.9853 11.0735 13.9599C10.6698 14.9344 10.5642 16.0068 10.77 17.0413C10.9758 18.0759 11.4837 19.0262 12.2296 19.7721C12.9755 20.518 13.9258 21.0259 14.9604 21.2317C15.9949 21.4375 17.0673 21.3319 18.0418 20.9282C19.0164 20.5245 19.8493 19.8409 20.4353 18.9639C21.0214 18.0868 21.3342 17.0557 21.3342 16.0008C21.3325 14.5869 20.7701 13.2313 19.7702 12.2314C18.7704 11.2316 17.4148 10.6692 16.0008 10.6675Z" fill="#00154C"/>
<path d="M16 32C12.8355 32 9.74207 31.0616 7.11088 29.3035C4.4797 27.5454 2.42894 25.0466 1.21793 22.1229C0.0069325 19.1993 -0.309921 15.9823 0.307443 12.8786C0.924806 9.77486 2.44866 6.92394 4.6863 4.6863C6.92394 2.44866 9.77486 0.924806 12.8786 0.307443C15.9823 -0.309921 19.1993 0.0069325 22.1229 1.21793C25.0466 2.42894 27.5454 4.4797 29.3035 7.11088C31.0616 9.74207 32 12.8355 32 16C31.995 20.2419 30.3077 24.3087 27.3082 27.3082C24.3087 30.3077 20.2419 31.995 16 32ZM16 1.88236C13.2078 1.88236 10.4783 2.71035 8.15666 4.26161C5.83503 5.81288 4.02553 8.01775 2.957 10.5974C1.88847 13.1771 1.60889 16.0157 2.15363 18.7542C2.69836 21.4928 4.04293 24.0083 6.01732 25.9827C7.99171 27.9571 10.5072 29.3016 13.2458 29.8464C15.9843 30.3911 18.8229 30.1115 21.4026 29.043C23.9823 27.9745 26.1871 26.165 27.7384 23.8433C29.2897 21.5217 30.1176 18.7922 30.1176 16C30.1143 12.2568 28.6259 8.66784 25.979 6.02099C23.3322 3.37414 19.7432 1.88568 16 1.88236Z" fill="#00154C"/>
<path d="M29.69 10.6668H16.3128C16.0632 10.6668 15.8238 10.5677 15.6473 10.3912C15.4708 10.2147 15.3716 9.97529 15.3716 9.72567C15.3716 9.47605 15.4708 9.23666 15.6473 9.06016C15.8238 8.88365 16.0632 8.78449 16.3128 8.78449H29.69C29.9396 8.78449 30.179 8.88365 30.3555 9.06016C30.532 9.23666 30.6312 9.47605 30.6312 9.72567C30.6312 9.97529 30.532 10.2147 30.3555 10.3912C30.179 10.5677 29.9396 10.6668 29.69 10.6668ZM10.1826 19.3068C10.0036 19.308 9.82807 19.2578 9.6768 19.1621C9.52554 19.0665 9.40491 18.9294 9.32924 18.7672L3.68218 6.64489C3.57651 6.41857 3.56508 6.15954 3.65039 5.92479C3.7357 5.69004 3.91077 5.49879 4.13709 5.39312C4.3634 5.28745 4.62243 5.27601 4.85718 5.36132C5.09193 5.44663 5.28318 5.62171 5.38885 5.84802L11.0359 17.9704C11.0898 18.0822 11.1208 18.2037 11.1272 18.3277C11.1336 18.4517 11.1152 18.5757 11.0732 18.6926C11.0311 18.8094 10.9662 18.9166 10.8822 19.0081C10.7983 19.0996 10.6969 19.1734 10.5841 19.2253C10.4583 19.2829 10.3209 19.3108 10.1826 19.3068ZM15.8987 32.0002C15.7619 32.0018 15.6266 31.9718 15.5034 31.9123C15.3906 31.8604 15.2892 31.7866 15.2051 31.6953C15.1209 31.604 15.0557 31.4969 15.0131 31.3802C14.9705 31.2636 14.9514 31.1397 14.957 31.0156C14.9625 30.8916 14.9925 30.7698 15.0453 30.6574L20.6924 18.5351C20.7411 18.4181 20.8129 18.3121 20.9035 18.2236C20.9941 18.135 21.1017 18.0656 21.2198 18.0197C21.3379 17.9737 21.4641 17.952 21.5907 17.956C21.7174 17.9599 21.8419 17.9894 21.9569 18.0427C22.0719 18.096 22.1749 18.1719 22.2599 18.2659C22.3448 18.36 22.4098 18.4702 22.4511 18.59C22.4924 18.7099 22.5091 18.8368 22.5001 18.9632C22.4912 19.0896 22.4568 19.2129 22.399 19.3257L16.752 31.448C16.6782 31.6125 16.5583 31.7522 16.4069 31.8502C16.2555 31.9482 16.079 32.0002 15.8987 32.0002Z" fill="#00154C"/>
</svg>
