<svg width="34" height="32" viewBox="0 0 34 32" fill="none" xmlns="http://www.w3.org/2000/svg">
<circle cx="11" cy="13" r="10" stroke="#00154C" stroke-width="2"/>
<path d="M24.634 16.5C25.0189 15.8333 25.9811 15.8333 26.366 16.5L30.2631 23.25C30.648 23.9167 30.1669 24.75 29.3971 24.75H21.6029C20.8331 24.75 20.352 23.9167 20.7369 23.25L24.634 16.5Z" stroke="#00154C" stroke-width="2"/>
<path d="M25.0919 1.96866C25.4494 1.19379 26.5506 1.19379 26.9081 1.96866L27.7405 3.77341C27.8862 4.08922 28.1855 4.30666 28.5308 4.34761L30.5045 4.58162C31.3519 4.68209 31.6922 5.72948 31.0657 6.30885L29.6065 7.65825C29.3512 7.89438 29.2369 8.24621 29.3046 8.58732L29.692 10.5367C29.8583 11.3737 28.9673 12.021 28.2227 11.6042L26.4884 10.6334C26.185 10.4635 25.815 10.4635 25.5116 10.6334L23.7773 11.6042C23.0327 12.021 22.1417 11.3737 22.308 10.5367L22.6954 8.58732C22.7631 8.24621 22.6488 7.89438 22.3935 7.65825L20.9343 6.30885C20.3078 5.72948 20.6481 4.68209 21.4955 4.58162L23.4692 4.34761C23.8145 4.30666 24.1138 4.08922 24.2595 3.77341L25.0919 1.96866Z" fill="#01154A"/>
<rect width="5.72388" height="5.65589" rx="1" transform="matrix(0.857102 -0.515146 0.53543 0.84458 12.9258 26.8516)" fill="#01154A"/>
</svg>
