<svg width="32" height="33" viewBox="0 0 32 33" fill="none" xmlns="http://www.w3.org/2000/svg">
<path d="M32 19.3102C32 19.6028 31.8837 19.8835 31.6768 20.0904C31.4699 20.2974 31.1892 20.4136 30.8966 20.4136H24.4784C24.2108 22.473 23.2027 24.3645 21.6425 25.735C20.0824 27.1056 18.0767 27.8614 16 27.8614C13.9233 27.8614 11.9177 27.1056 10.3575 25.735C8.79728 24.3645 7.78925 22.473 7.5216 20.4136H1.10372C0.943749 20.4172 0.784975 20.3852 0.638893 20.3199C0.492811 20.2546 0.363076 20.1576 0.259076 20.036C0.155077 19.9144 0.0794153 19.7712 0.0375676 19.6167C-0.00428009 19.4623 -0.011267 19.3005 0.0171125 19.143C0.00707189 18.923 0.00146164 18.7028 0.000285056 18.4826C0.000804748 14.4307 1.53881 10.53 4.30372 7.56814C7.06864 4.60625 10.8545 2.80386 14.8967 2.52494V1.10344C14.8967 0.810789 15.013 0.530125 15.2199 0.32319C15.4268 0.116255 15.7075 0 16.0001 0C16.2928 0 16.5735 0.116255 16.7804 0.32319C16.9873 0.530125 17.1036 0.810789 17.1036 1.10344V2.52494C21.1458 2.80386 24.9316 4.60625 27.6966 7.56814C30.4615 10.53 31.9995 14.4307 32 18.4826C32 18.7033 31.992 18.924 31.9832 19.143C31.993 19.1982 31.9986 19.2541 32 19.3102ZM16.0001 25.6549C17.4908 25.6543 18.9335 25.1286 20.0751 24.1701C21.2167 23.2116 21.9842 21.8816 22.2428 20.4136H9.75744C10.0161 21.8816 10.7836 23.2116 11.9252 24.1701C13.0668 25.1286 14.5095 25.6543 16.0001 25.6549ZM16.0001 4.68961C12.3903 4.68999 8.92451 6.10582 6.34694 8.6331C3.76938 11.1604 2.28555 14.5976 2.21406 18.2067H29.7862C29.7147 14.5976 28.2308 11.1604 25.6533 8.63318C23.0757 6.10591 19.61 4.69006 16.0001 4.68961ZM3.86232 21.5171H5.51748C5.81013 21.5171 6.09079 21.6333 6.29773 21.8402C6.50466 22.0472 6.62092 22.3278 6.62092 22.6205C6.62092 22.9131 6.50466 23.1938 6.29773 23.4007C6.09079 23.6077 5.81013 23.7239 5.51748 23.7239H3.86232C3.56967 23.7239 3.28901 23.6077 3.08207 23.4007C2.87514 23.1938 2.75888 22.9131 2.75888 22.6205C2.75888 22.3278 2.87514 22.0472 3.08207 21.8402C3.28901 21.6333 3.56967 21.5171 3.86232 21.5171ZM8.14808 27.5769C8.29695 27.3261 8.53835 27.1439 8.82028 27.0695C9.10222 26.995 9.40211 27.0343 9.65537 27.1788C9.78039 27.2489 9.89019 27.3432 9.97836 27.4562C10.0665 27.5692 10.1313 27.6987 10.1689 27.837C10.2065 27.9753 10.2162 28.1197 10.1973 28.2618C10.1785 28.4039 10.1316 28.5408 10.0592 28.6646L9.23165 30.0778C9.08278 30.3285 8.84137 30.5108 8.55944 30.5852C8.27751 30.6597 7.97761 30.6204 7.72435 30.4759C7.59936 30.4057 7.48959 30.3114 7.40145 30.1984C7.3133 30.0854 7.24854 29.956 7.21094 29.8176C7.17335 29.6793 7.16368 29.5349 7.18249 29.3929C7.20129 29.2508 7.24821 29.1138 7.3205 28.9901L8.14808 27.5769ZM16.0001 29.2411C16.2928 29.2411 16.5735 29.3574 16.7804 29.5643C16.9873 29.7712 17.1036 30.0519 17.1036 30.3446V30.9997C17.1036 31.2924 16.9873 31.573 16.7804 31.78C16.5735 31.9869 16.2928 32.1032 16.0001 32.1032C15.7075 32.1032 15.4268 31.9869 15.2199 31.78C15.013 31.573 14.8967 31.2924 14.8967 30.9997V30.3446C14.8967 30.0519 15.013 29.7712 15.2199 29.5643C15.4268 29.3574 15.7075 29.2411 16.0001 29.2411ZM22.3449 27.1788C22.5982 27.0343 22.8981 26.995 23.18 27.0695C23.4619 27.1439 23.7033 27.3261 23.8522 27.5769L24.6798 28.9901C24.7521 29.1138 24.7991 29.2508 24.8179 29.3929C24.8367 29.5349 24.8271 29.6794 24.7895 29.8177C24.7519 29.956 24.6871 30.0854 24.5989 30.1984C24.5107 30.3114 24.4009 30.4058 24.2759 30.4759C24.0227 30.6204 23.7228 30.6597 23.4408 30.5852C23.1589 30.5108 22.9175 30.3285 22.7686 30.0778L21.9411 28.6646C21.8687 28.5408 21.8218 28.4039 21.803 28.2618C21.7841 28.1197 21.7938 27.9753 21.8314 27.837C21.869 27.6987 21.9338 27.5692 22.0219 27.4562C22.1101 27.3432 22.2199 27.2489 22.3449 27.1788ZM26.4828 21.5171H28.138C28.4306 21.5171 28.7113 21.6333 28.9182 21.8402C29.1251 22.0472 29.2414 22.3278 29.2414 22.6205C29.2414 22.9131 29.1251 23.1938 28.9182 23.4007C28.7113 23.6077 28.4306 23.7239 28.138 23.7239H26.4828C26.1902 23.7239 25.9095 23.6077 25.7026 23.4007C25.4956 23.1938 25.3794 22.9131 25.3794 22.6205C25.3794 22.3278 25.4956 22.0472 25.7026 21.8402C25.9095 21.6333 26.1902 21.5171 26.4828 21.5171Z" fill="#00154C"/>
</svg>
