<svg width="32" height="33" viewBox="0 0 32 33" fill="none" xmlns="http://www.w3.org/2000/svg">
<path d="M28.1696 0C30.2639 0 31.9657 1.6808 31.9995 3.76706L32 3.83042V15.1087C32 15.8138 31.4283 16.3855 30.7232 16.3855C30.0251 16.3855 29.4578 15.8252 29.4465 15.1298L29.4464 15.1087V2.55362H2.55362V29.5262H11.854C12.5591 29.5262 13.1308 30.0978 13.1308 30.803C13.1308 31.5011 12.5705 32.0683 11.875 32.0798H3.83042C1.73606 32.0798 0.0343142 30.399 0.000518723 28.3127L0 28.2494V3.83042C0 1.73606 1.6808 0.0343142 3.76706 0.000518723L3.83042 0H28.1696ZM19.9445 12.2574C24.1835 12.2574 27.6317 15.7057 27.6317 19.9447C27.6312 21.4757 27.1708 22.9712 26.3102 24.2375L26.2833 24.2768L30.0652 28.0587C30.3211 28.3143 30.4695 28.6575 30.4808 29.0213L30.4813 29.0423V29.0621C30.4813 29.4384 30.3316 29.7995 30.066 30.0646C29.9344 30.197 29.778 30.302 29.6057 30.3737C29.4335 30.4454 29.2487 30.4823 29.0621 30.4822C28.8756 30.4823 28.691 30.4455 28.5188 30.3739C28.3466 30.3024 28.1903 30.1975 28.0587 30.0653L24.2768 26.2833L24.2385 26.3095C22.999 27.1522 21.539 27.6118 20.0402 27.6311L19.9929 27.6316L19.9446 27.6318C15.7057 27.6318 12.2574 24.1835 12.2574 19.9446C12.2574 15.7057 15.7057 12.2574 19.9445 12.2574ZM19.9445 14.816C17.117 14.816 14.816 17.117 14.816 19.9446C14.816 22.7721 17.117 25.0731 19.9446 25.0731C22.7721 25.0731 25.0731 22.7721 25.0731 19.9446C25.0731 17.117 22.7721 14.816 19.9446 14.816H19.9445ZM10.015 12.2494C10.7201 12.2494 11.2918 12.821 11.2918 13.5262C11.2918 14.2313 10.7201 14.803 10.015 14.803H6.98254C6.27739 14.803 5.70574 14.2313 5.70574 13.5262C5.70574 12.821 6.27739 12.2494 6.98254 12.2494H10.015ZM25.0175 5.74564C25.7226 5.74564 26.2943 6.31729 26.2943 7.02244C26.2943 7.7276 25.7226 8.29925 25.0175 8.29925H6.98254C6.27739 8.29925 5.70574 7.7276 5.70574 7.02244C5.70574 6.31729 6.27739 5.74564 6.98254 5.74564H25.0175Z" fill="#00154C"/>
</svg>
